<svg xmlns="http://www.w3.org/2000/svg" width="28" height="28" viewBox="0 0 28 28"><defs><style>.a{fill:none;}.b,.c{stroke:none;}.c{fill:#3e3e3e;}</style></defs><g transform="translate(-1429 -56)"><g class="a" transform="translate(1429 56)"><path class="b" d="M14,0A14,14,0,1,1,0,14,14,14,0,0,1,14,0Z"/><path class="c" d="M 14 2 C 10.79467964172363 2 7.781219482421875 3.248220443725586 5.514720916748047 5.514720916748047 C 3.248220443725586 7.781219482421875 2 10.79467964172363 2 14 C 2 17.2053108215332 3.248220443725586 20.21878051757813 5.514720916748047 22.48527908325195 C 7.781219482421875 24.75177955627441 10.79467964172363 26 14 26 C 17.2053108215332 26 20.21878051757813 24.75177955627441 22.48527908325195 22.48527908325195 C 24.75177955627441 20.21878051757813 26 17.2053108215332 26 14 C 26 10.79467964172363 24.75177955627441 7.781219482421875 22.48527908325195 5.514720916748047 C 20.21878051757813 3.248220443725586 17.2053108215332 2 14 2 M 14 0 C 21.73197937011719 0 28 6.268009185791016 28 14 C 28 21.73197937011719 21.73197937011719 28 14 28 C 6.268009185791016 28 0 21.73197937011719 0 14 C 0 6.268009185791016 6.268009185791016 0 14 0 Z"/></g><g class="a" transform="translate(1437 61)"><path class="b" d="M6,0a6,6,0,0,1,6,6c0,3.314-1.932,6.04-5.934,6.04A5.687,5.687,0,0,1,0,6,6,6,0,0,1,6,0Z"/><path class="c" d="M 6 1.5 C 3.51869010925293 1.5 1.5 3.51869010925293 1.5 6.000000476837158 C 1.5 7.30366039276123 1.902170181274414 8.455140113830566 2.632419586181641 9.242340087890625 C 3.430999755859375 10.10319042205811 4.586359977722168 10.53968048095703 6.066410064697266 10.53968048095703 C 7.528289794921875 10.53968048095703 8.655679702758789 10.10935974121094 9.41726016998291 9.260660171508789 C 10.12559986114502 8.471309661865234 10.5 7.343790054321289 10.5 6.000000476837158 C 10.5 3.51869010925293 8.48130989074707 1.5 6 1.5 M 6 0 C 9.31371021270752 0 12 2.68628978729248 12 6.000000476837158 C 12 9.31371021270752 10.06764984130859 12.03968048095703 6.066410064697266 12.03968048095703 C 2.065159797668457 12.03968048095703 0 9.31371021270752 0 6.000000476837158 C 0 2.68628978729248 2.68628978729248 0 6 0 Z"/></g><g class="a" transform="translate(1434.009 72.429)"><path class="b" d="M8.98,0c4.959,0,8.889,3.84,8.889,8.189a14.336,14.336,0,0,1-17.877,0C-.009,3.84,4.02,0,8.98,0Z"/><path class="c" d="M 8.979519844055176 1.499998092651367 C 6.979849815368652 1.499998092651367 5.084869384765625 2.233488082885742 3.643649101257324 3.565357208251953 C 2.475950241088867 4.644449234008789 1.733343124389648 6.03065299987793 1.540981292724609 7.454914569854736 C 2.962058067321777 8.409124374389648 5.658288955688477 9.836088180541992 9.06973934173584 9.836088180541992 C 11.59530067443848 9.836088180541992 14.03121757507324 9.037010192871094 16.32069969177246 7.459437847137451 C 16.13381576538086 6.025398731231689 15.40484237670898 4.634474754333496 14.25724983215332 3.557507514953613 C 12.84343910217285 2.230707168579102 10.9690990447998 1.499998092651367 8.979519844055176 1.499998092651367 M 8.979519844055176 -1.9073486328125e-06 C 13.93886947631836 -1.9073486328125e-06 17.86841011047363 3.840137481689453 17.86841011047363 8.189407348632813 C 14.84031677246094 10.49650287628174 11.8164587020874 11.33609199523926 9.069741249084473 11.33609199523926 C 5.277339935302734 11.33609199523926 2.012843132019043 9.736167907714844 -0.008790969848632813 8.189407348632813 C -0.008790969848632813 3.840137481689453 4.020159721374512 -1.9073486328125e-06 8.979519844055176 -1.9073486328125e-06 Z"/></g></g></svg>