<svg xmlns="http://www.w3.org/2000/svg" width="17.875" height="22" viewBox="0 0 17.875 22">
  <path id="Icon_metro-bin" data-name="Icon metro-bin" d="M5.874,8.8v13.75a1.379,1.379,0,0,0,1.375,1.375H19.624A1.379,1.379,0,0,0,21,22.553V8.8ZM10,21.178H8.624V11.553H10Zm2.75,0H11.374V11.553h1.375Zm2.75,0H14.124V11.553H15.5Zm2.75,0H16.874V11.553h1.375Zm3.094-16.5H16.874V2.959a1.034,1.034,0,0,0-1.031-1.031H11.03A1.034,1.034,0,0,0,10,2.959V4.678H5.53A1.034,1.034,0,0,0,4.5,5.709V7.428H22.374V5.709A1.034,1.034,0,0,0,21.342,4.678Zm-5.844,0H11.374V3.32H15.5V4.678Z" transform="translate(-4.499 -1.928)" fill="#3e3e3e"/>
</svg>