<svg xmlns="http://www.w3.org/2000/svg" width="26.713" height="29.64" viewBox="0 0 26.713 29.64"><defs><style>.a{fill:rgba(0,0,0,0);stroke:#3e3e3e;stroke-linecap:round;stroke-width:2px;}</style></defs><g transform="translate(-1356 -55)"><path class="a" d="M-2043.146,22.891l5.091,6.109Zm-16.272-1.083a12.377,12.377,0,0,1-2.623-3.894,11.949,11.949,0,0,1-.958-4.7,11.948,11.948,0,0,1,.958-4.694,12.377,12.377,0,0,1,2.623-3.894A12.1,12.1,0,0,1-2050.782,1a12.1,12.1,0,0,1,8.636,3.629,12.382,12.382,0,0,1,2.623,3.894,11.953,11.953,0,0,1,.958,4.694,11.954,11.954,0,0,1-.958,4.7,12.382,12.382,0,0,1-2.623,3.894,12.1,12.1,0,0,1-8.636,3.629A12.1,12.1,0,0,1-2059.419,21.807Z" transform="translate(3420 55)"/></g></svg>