<svg xmlns="http://www.w3.org/2000/svg" width="28.7" height="28.7" viewBox="0 0 28.7 28.7"><defs><style>.a{fill:#3e3e3e;stroke:#3e3e3e;stroke-width:0.7px;}</style></defs><g transform="translate(0.35 0.35)"><g transform="translate(0 6.056)"><path class="a" d="M27.417,106.667H.583a.581.581,0,0,0-.583.577v17.324a4.067,4.067,0,0,0,4.083,4.042H23.917A4.067,4.067,0,0,0,28,124.568V107.244A.581.581,0,0,0,27.417,106.667Zm-.583,17.9a2.9,2.9,0,0,1-2.917,2.887H4.083a2.9,2.9,0,0,1-2.917-2.887V107.822H26.833Z" transform="translate(0 -106.667)"/></g><g transform="translate(7.944 0)"><path class="a" d="M155.39,0a6.063,6.063,0,0,0-6.056,6.056V10.3a.606.606,0,1,0,1.211,0V6.056a4.845,4.845,0,0,1,9.69,0V10.3a.606.606,0,1,0,1.211,0V6.056A6.063,6.063,0,0,0,155.39,0Z" transform="translate(-149.333 0)"/></g><g transform="translate(6.962 9.282)"><path class="a" d="M129.817,170.667a1.817,1.817,0,1,0,1.817,1.817A1.819,1.819,0,0,0,129.817,170.667Zm0,2.423a.606.606,0,1,1,.606-.606A.607.607,0,0,1,129.817,173.09Z" transform="translate(-128 -170.667)"/></g><g transform="translate(17.404 9.282)"><path class="a" d="M321.817,170.667a1.817,1.817,0,1,0,1.817,1.817A1.819,1.819,0,0,0,321.817,170.667Zm0,2.423a.606.606,0,1,1,.606-.606A.607.607,0,0,1,321.817,173.09Z" transform="translate(-320 -170.667)"/></g></g></svg>